<svg width="34" height="34" viewBox="0 0 34 34" fill="none" xmlns="http://www.w3.org/2000/svg">
<path d="M18.2986 10.5068H15.7013V15.7014H10.5067V18.2987H15.7013V23.4934H18.2986V18.2987H23.4933V15.7014H18.2986V10.5068ZM17 4.01349C9.83789 4.01349 4.01341 9.83797 4.01341 17.0001C4.01341 24.1622 9.83789 29.9867 17 29.9867C24.1621 29.9867 29.9866 24.1622 29.9866 17.0001C29.9866 9.83797 24.1621 4.01349 17 4.01349ZM17 27.3893C11.2729 27.3893 6.61073 22.7272 6.61073 17.0001C6.61073 11.273 11.2729 6.61081 17 6.61081C22.7271 6.61081 27.3892 11.273 27.3892 17.0001C27.3892 22.7272 22.7271 27.3893 17 27.3893Z" fill="white"/>
</svg>
